<svg id="svg" version="1.1" xmlns="http://www.w3.org/2000/svg" xmlns:xlink="http://www.w3.org/1999/xlink" width="400" height="284.2543077837196" viewBox="0, 0, 400,284.2543077837196"><g id="svgg"><path xmlns="http://www.w3.org/2000/svg" id="path0" d="M262.434 24.293 C 262.260 24.334,261.773 24.556,261.351 24.786 C 259.433 25.832,258.458 26.355,256.750 27.254 C 255.742 27.784,254.054 28.686,253.000 29.256 C 251.946 29.827,249.358 31.211,247.250 32.333 C 242.200 35.020,241.080 35.619,240.083 36.166 C 239.625 36.418,238.500 37.019,237.583 37.503 C 236.667 37.987,235.617 38.545,235.250 38.744 C 234.883 38.942,231.934 40.520,228.696 42.250 C 222.397 45.616,222.333 45.663,222.333 46.925 C 222.333 48.706,223.926 49.086,226.230 47.856 C 227.066 47.410,230.525 45.563,233.917 43.751 C 237.308 41.940,240.646 40.158,241.333 39.791 C 242.021 39.425,242.958 38.919,243.417 38.668 C 243.875 38.417,244.887 37.874,245.667 37.461 C 246.446 37.048,249.858 35.229,253.250 33.418 C 256.642 31.607,259.979 29.827,260.667 29.462 C 263.815 27.789,264.315 27.459,264.596 26.867 C 265.238 25.514,263.919 23.944,262.434 24.293 M297.307 30.876 C 295.619 32.303,295.686 32.397,303.699 39.924 C 307.394 43.394,310.979 46.770,311.667 47.425 C 312.354 48.079,314.904 50.476,317.333 52.751 C 319.762 55.026,322.387 57.496,323.167 58.241 C 323.946 58.985,325.821 60.748,327.333 62.160 C 328.846 63.571,330.721 65.334,331.500 66.077 C 332.279 66.820,334.754 69.149,337.000 71.251 C 339.246 73.354,341.608 75.569,342.250 76.174 C 342.892 76.779,344.092 77.911,344.917 78.689 C 345.742 79.467,347.729 81.334,349.333 82.839 C 350.938 84.343,352.850 86.145,353.583 86.843 C 354.317 87.541,355.239 88.405,355.634 88.764 L 356.351 89.417 353.634 90.565 C 331.872 99.763,309.137 113.219,292.634 126.671 C 290.907 128.079,290.661 128.504,290.913 129.652 C 291.266 131.256,292.931 131.279,294.864 129.704 C 311.350 116.276,334.792 102.470,356.055 93.665 L 359.359 92.296 359.876 92.773 C 360.160 93.035,360.549 93.400,360.741 93.583 C 360.932 93.767,361.650 94.438,362.336 95.074 C 363.022 95.711,364.221 96.838,365.000 97.579 C 365.779 98.319,367.692 100.118,369.250 101.575 C 370.808 103.032,372.684 104.793,373.419 105.487 C 374.154 106.182,375.354 107.309,376.086 107.992 C 376.818 108.675,378.017 109.803,378.750 110.498 C 380.849 112.488,381.105 112.667,381.863 112.667 C 382.861 112.667,383.667 111.823,383.667 110.779 C 383.667 109.872,383.929 110.158,377.917 104.510 C 376.579 103.254,371.850 98.815,370.004 97.085 C 364.224 91.665,363.410 90.867,363.534 90.743 C 363.837 90.440,373.057 87.301,377.917 85.846 C 381.741 84.701,382.004 84.531,381.995 83.199 C 381.987 82.111,381.272 81.333,380.279 81.333 C 379.101 81.333,365.639 85.717,361.279 87.521 C 360.200 87.967,360.383 88.074,357.396 85.250 C 350.752 78.967,348.354 76.709,336.417 65.502 C 333.942 63.179,331.317 60.708,330.583 60.011 C 329.850 59.315,328.087 57.660,326.667 56.333 C 325.246 55.007,323.483 53.352,322.750 52.656 C 320.136 50.175,318.360 48.504,314.167 44.581 C 311.829 42.394,309.354 40.071,308.667 39.418 C 307.979 38.765,306.667 37.527,305.750 36.667 C 304.833 35.806,303.483 34.534,302.750 33.840 C 298.824 30.124,298.442 29.916,297.307 30.876 M44.520 87.785 C 43.333 88.370,43.222 89.573,44.221 91.031 C 44.618 91.610,45.535 92.946,46.259 94.000 C 46.983 95.054,48.267 96.929,49.112 98.167 L 50.649 100.417 50.033 100.613 C 44.033 102.520,44.000 102.539,44.000 104.062 C 44.000 105.815,45.188 106.099,48.348 105.103 C 49.669 104.686,51.230 104.215,51.817 104.055 L 52.885 103.764 53.309 104.314 C 53.542 104.616,54.927 106.601,56.386 108.724 C 57.846 110.846,59.996 113.971,61.164 115.667 C 63.326 118.806,72.475 132.111,76.006 137.250 C 77.076 138.808,78.844 141.375,79.934 142.954 C 82.337 146.435,88.924 156.023,91.586 159.917 C 93.829 163.196,94.267 163.667,95.075 163.667 C 96.341 163.667,97.045 163.004,97.045 161.815 C 97.045 161.083,97.272 161.453,93.335 155.750 C 90.782 152.051,87.572 147.385,86.282 145.499 C 85.749 144.720,84.770 143.296,84.105 142.333 C 82.787 140.422,79.688 135.920,77.165 132.250 C 76.283 130.967,74.478 128.342,73.153 126.417 C 71.829 124.492,70.386 122.392,69.946 121.750 C 69.507 121.108,68.604 119.796,67.940 118.833 C 61.278 109.174,57.142 103.129,57.074 102.953 C 56.979 102.705,60.196 101.999,64.750 101.267 C 72.912 99.956,81.889 99.451,89.917 99.851 C 96.224 100.165,95.897 100.180,96.525 99.552 C 97.464 98.613,97.216 97.212,95.999 96.583 C 94.921 96.025,82.741 95.755,76.750 96.155 C 69.396 96.647,63.792 97.431,56.500 98.990 C 55.629 99.176,54.828 99.329,54.720 99.331 C 54.538 99.333,52.606 96.613,48.417 90.455 C 46.390 87.476,45.870 87.120,44.520 87.785 M210.250 87.735 C 208.201 88.643,198.133 98.667,193.160 104.750 C 183.804 116.194,176.909 128.412,172.883 140.681 L 172.278 142.523 170.431 140.705 C 162.169 132.578,153.283 126.543,142.333 121.623 C 136.612 119.052,128.634 116.709,121.833 115.603 C 117.324 114.869,111.202 114.464,110.102 114.827 C 108.784 115.262,108.383 116.824,109.320 117.872 L 109.806 118.417 112.861 118.527 C 136.200 119.369,159.869 132.123,176.190 152.650 C 179.457 156.760,179.595 156.866,180.888 156.253 C 182.897 155.299,182.412 154.159,177.499 148.279 L 175.296 145.641 175.581 144.696 C 181.320 125.701,194.359 106.063,210.174 92.599 C 212.702 90.447,212.833 90.291,212.833 89.451 C 212.833 88.020,211.542 87.162,210.250 87.735 M44.750 116.860 C 43.414 117.595,43.482 118.740,44.993 120.917 C 45.629 121.833,46.898 123.671,47.812 125.000 C 48.727 126.329,50.910 129.479,52.664 132.000 C 54.418 134.521,56.954 138.180,58.301 140.130 C 59.648 142.081,61.762 145.135,63.000 146.916 C 64.237 148.697,65.625 150.697,66.083 151.360 C 67.795 153.838,69.069 155.677,76.396 166.250 C 80.525 172.208,84.656 178.176,85.576 179.510 C 86.497 180.845,88.225 183.341,89.417 185.056 C 90.608 186.772,92.137 188.978,92.813 189.960 C 93.490 190.942,95.321 193.584,96.884 195.831 C 98.446 198.078,100.448 200.967,101.333 202.250 C 105.962 208.962,108.415 212.438,108.652 212.620 C 109.935 213.605,111.911 212.357,111.590 210.765 C 111.480 210.220,111.400 210.099,105.403 201.459 C 99.657 193.182,84.382 171.146,82.209 168.000 C 78.303 162.345,76.659 159.970,73.731 155.750 C 72.077 153.367,70.232 150.704,69.631 149.833 C 69.030 148.962,67.287 146.450,65.757 144.250 C 64.227 142.050,62.226 139.162,61.311 137.833 C 60.396 136.504,58.842 134.254,57.858 132.833 C 56.874 131.412,54.616 128.150,52.841 125.583 C 47.846 118.363,47.002 117.187,46.617 116.917 C 46.201 116.626,45.230 116.596,44.750 116.860 M358.962 123.183 C 358.408 123.596,358.091 124.614,358.325 125.228 C 358.519 125.738,358.532 125.728,356.946 126.246 C 341.804 131.189,321.264 140.691,304.333 150.586 C 280.013 164.801,258.343 182.396,241.667 201.468 C 239.795 203.609,240.090 205.500,242.294 205.500 C 243.175 205.500,242.945 205.712,247.355 200.833 C 264.412 181.963,287.980 163.677,312.500 150.288 C 313.096 149.962,314.708 149.083,316.083 148.333 C 328.855 141.369,347.093 133.412,359.493 129.393 C 363.124 128.217,363.411 128.070,363.781 127.194 C 364.575 125.317,360.569 121.984,358.962 123.183 M40.500 125.890 C 36.150 127.617,36.210 127.587,35.838 128.198 C 35.154 129.319,34.895 128.817,39.917 136.083 C 42.134 139.292,44.283 142.404,44.692 143.000 C 45.101 143.596,47.824 147.533,50.743 151.750 C 53.662 155.967,57.629 161.704,59.560 164.500 C 62.917 169.361,64.911 172.245,68.723 177.750 C 69.675 179.125,72.240 182.838,74.422 186.000 C 76.605 189.162,79.225 192.950,80.244 194.417 C 81.264 195.883,83.820 199.582,85.924 202.635 C 88.028 205.689,90.541 209.326,91.508 210.719 C 92.474 212.111,95.881 217.037,99.078 221.667 C 102.275 226.296,105.670 231.208,106.623 232.583 C 107.576 233.958,109.194 236.298,110.220 237.783 C 116.111 246.317,116.339 246.628,116.833 246.833 C 118.215 247.406,119.748 246.092,119.380 244.650 C 119.293 244.309,115.885 239.267,110.999 232.250 C 110.297 231.242,108.221 228.242,106.386 225.583 C 104.551 222.925,100.327 216.813,97.000 212.000 C 93.673 207.188,90.070 201.975,88.994 200.417 C 87.918 198.858,84.535 193.965,81.477 189.543 C 78.419 185.121,74.195 179.008,72.091 175.960 C 69.987 172.911,67.432 169.217,66.414 167.750 C 65.395 166.283,63.812 163.996,62.895 162.667 C 59.005 157.022,57.147 154.333,55.492 151.949 C 53.987 149.780,43.861 135.137,41.220 131.310 L 40.342 130.037 42.546 129.165 C 45.215 128.108,45.722 127.696,45.722 126.583 C 45.722 125.952,45.634 125.725,45.236 125.334 C 44.364 124.476,43.935 124.526,40.500 125.890 M30.083 134.188 C 24.338 135.626,24.167 135.716,24.167 137.280 C 24.167 139.316,24.904 139.402,30.504 138.017 C 36.199 136.608,36.871 136.213,36.337 134.594 C 35.803 132.975,35.109 132.930,30.083 134.188 M359.928 137.690 C 357.836 138.249,358.101 139.786,360.755 142.500 C 361.696 143.462,362.661 144.486,362.900 144.774 L 363.333 145.297 362.902 145.405 C 362.484 145.510,358.189 147.376,355.667 148.548 C 354.979 148.868,353.329 149.631,352.000 150.243 C 349.648 151.327,334.750 158.738,334.417 158.990 C 334.325 159.059,333.350 159.588,332.250 160.165 C 329.826 161.436,328.252 162.280,327.583 162.667 C 327.308 162.827,326.483 163.277,325.750 163.669 C 312.496 170.746,292.167 183.543,278.956 193.127 C 275.629 195.541,275.302 196.043,276.154 197.441 C 277.021 198.862,277.752 198.653,281.594 195.885 C 305.734 178.488,336.885 160.721,363.236 149.321 C 364.552 148.751,365.164 148.164,365.166 147.470 C 365.167 147.233,365.251 147.214,365.707 147.345 C 368.091 148.029,368.999 145.692,367.126 143.694 C 365.763 142.240,362.561 138.905,361.885 138.235 C 361.315 137.670,360.672 137.491,359.928 137.690 M34.583 139.159 C 33.600 139.566,33.151 140.742,33.625 141.667 C 33.789 141.987,39.279 149.787,45.825 159.000 C 52.371 168.212,59.351 178.037,61.335 180.833 C 63.319 183.629,68.542 190.979,72.942 197.167 C 77.341 203.354,83.068 211.417,85.667 215.083 C 102.165 238.351,113.263 253.910,113.556 254.184 C 113.981 254.579,115.267 254.612,115.797 254.240 C 116.000 254.098,116.243 254.028,116.336 254.085 C 116.429 254.143,117.348 254.072,118.378 253.928 C 120.137 253.683,124.757 253.055,127.750 252.655 C 128.483 252.557,129.833 252.374,130.750 252.248 C 131.667 252.122,133.054 251.936,133.833 251.834 C 134.612 251.733,135.700 251.581,136.250 251.498 C 136.800 251.414,137.850 251.271,138.583 251.179 C 139.317 251.087,142.692 250.632,146.083 250.167 C 149.475 249.702,152.813 249.250,153.500 249.162 C 154.188 249.074,155.837 248.851,157.167 248.667 C 158.496 248.484,161.271 248.105,163.333 247.826 C 165.396 247.547,167.908 247.208,168.917 247.071 C 169.925 246.934,171.275 246.752,171.917 246.667 C 172.558 246.581,173.946 246.393,175.000 246.250 C 176.054 246.107,177.442 245.919,178.083 245.833 C 178.725 245.748,180.112 245.560,181.167 245.417 C 182.221 245.273,183.608 245.087,184.250 245.004 C 184.892 244.920,185.717 244.809,186.083 244.757 C 186.450 244.706,188.963 244.365,191.667 244.001 C 194.371 243.636,197.108 243.262,197.750 243.170 C 198.392 243.078,201.729 242.626,205.167 242.166 C 213.127 241.100,217.131 240.561,219.333 240.255 C 220.296 240.122,222.546 239.820,224.333 239.585 C 229.161 238.948,229.500 238.789,229.500 237.161 C 229.500 235.653,228.503 235.139,226.264 235.494 C 225.706 235.583,224.350 235.772,223.250 235.916 C 222.150 236.059,220.762 236.246,220.167 236.332 C 219.571 236.417,218.183 236.604,217.083 236.748 C 215.983 236.892,214.596 237.080,214.000 237.166 C 213.404 237.251,211.510 237.510,209.791 237.741 C 208.072 237.971,205.260 238.349,203.541 238.580 C 201.823 238.811,199.817 239.080,199.083 239.178 C 198.350 239.276,197.000 239.461,196.083 239.589 C 195.167 239.716,193.010 240.010,191.291 240.241 C 186.941 240.825,182.136 241.477,180.750 241.672 C 180.108 241.762,178.196 242.022,176.500 242.249 C 174.804 242.476,172.011 242.852,170.292 243.084 C 168.574 243.316,165.761 243.695,164.042 243.926 C 162.323 244.157,160.429 244.415,159.833 244.501 C 159.237 244.587,157.887 244.770,156.833 244.909 C 155.779 245.048,153.529 245.351,151.833 245.581 C 150.137 245.812,147.887 246.115,146.833 246.255 C 145.779 246.395,144.429 246.578,143.833 246.662 C 143.237 246.746,142.112 246.898,141.333 247.000 C 140.554 247.102,139.167 247.290,138.250 247.417 C 137.333 247.545,135.683 247.768,134.583 247.913 C 133.483 248.058,132.096 248.247,131.500 248.332 C 130.278 248.508,125.840 249.105,121.000 249.746 C 119.212 249.982,117.337 250.255,116.833 250.352 C 116.329 250.449,115.830 250.541,115.724 250.556 C 115.539 250.582,114.728 249.480,109.307 241.833 C 107.975 239.954,100.864 229.942,93.506 219.583 C 86.148 209.225,79.555 199.940,78.855 198.950 C 78.156 197.960,77.278 196.723,76.904 196.200 C 76.530 195.678,74.388 192.662,72.144 189.500 C 69.900 186.338,67.050 182.325,65.810 180.583 C 62.784 176.333,52.527 161.899,49.585 157.750 C 37.780 141.107,36.591 139.469,36.153 139.243 C 35.637 138.976,35.096 138.947,34.583 139.159 M9.502 148.292 C 7.939 149.076,8.094 150.021,10.300 153.176 C 11.290 154.592,13.302 157.475,14.771 159.583 C 16.240 161.692,18.909 165.517,20.701 168.083 C 26.105 175.821,35.277 188.969,46.804 205.500 C 48.689 208.204,52.379 213.492,55.004 217.250 C 57.629 221.008,61.265 226.221,63.085 228.833 C 66.064 233.110,73.441 243.684,80.002 253.083 C 81.346 255.008,83.857 258.608,85.582 261.083 C 87.306 263.558,89.123 266.163,89.617 266.871 C 90.962 268.795,92.383 269.020,93.334 267.460 C 93.953 266.446,93.951 266.442,90.614 261.667 C 87.138 256.692,81.256 248.266,75.083 239.417 C 73.356 236.942,70.844 233.342,69.499 231.417 C 61.437 219.871,51.829 206.095,51.191 205.167 C 50.782 204.571,48.273 200.971,45.616 197.167 C 42.960 193.362,39.321 188.150,37.530 185.583 C 35.739 183.017,33.174 179.342,31.829 177.417 C 30.485 175.492,27.973 171.892,26.248 169.417 C 24.523 166.942,22.273 163.717,21.249 162.250 C 20.224 160.783,17.975 157.558,16.251 155.083 C 14.527 152.608,12.787 150.115,12.383 149.542 C 11.327 148.041,10.616 147.733,9.502 148.292 M184.900 160.400 C 183.643 161.657,183.356 161.163,190.427 169.917 C 193.463 173.675,197.253 178.371,198.849 180.353 C 200.444 182.334,202.773 185.222,204.022 186.770 C 205.272 188.317,207.626 191.233,209.253 193.250 C 217.600 203.593,220.509 207.197,223.227 210.563 C 224.864 212.591,227.051 215.300,228.085 216.583 C 229.120 217.867,231.027 220.229,232.323 221.833 C 233.619 223.438,236.452 226.952,238.618 229.643 C 244.206 236.586,244.339 236.687,245.855 235.171 C 246.949 234.077,246.803 233.771,242.792 228.782 C 237.039 221.627,231.340 214.561,230.000 212.922 C 229.313 212.081,227.100 209.344,225.083 206.841 C 221.377 202.241,218.299 198.425,210.417 188.659 C 208.033 185.706,204.621 181.477,202.833 179.261 C 199.765 175.457,198.752 174.202,193.339 167.500 C 192.117 165.987,190.265 163.690,189.223 162.394 C 188.141 161.049,187.168 159.995,186.956 159.938 C 186.051 159.695,185.475 159.825,184.900 160.400 M369.426 162.661 C 368.724 163.031,367.740 163.596,367.238 163.917 C 366.737 164.238,366.289 164.500,366.243 164.500 C 366.196 164.500,365.692 164.792,365.121 165.150 C 364.550 165.507,362.208 166.908,359.917 168.262 C 354.165 171.660,339.972 180.060,327.500 187.447 C 324.704 189.103,320.354 191.676,317.833 193.165 C 315.313 194.655,311.225 197.075,308.750 198.544 C 306.275 200.013,302.975 201.966,301.417 202.885 C 299.858 203.804,297.871 204.984,297.000 205.508 C 296.129 206.031,291.892 208.539,287.583 211.082 C 283.275 213.624,279.225 216.022,278.583 216.410 C 277.942 216.798,275.917 218.001,274.083 219.083 C 272.250 220.165,268.762 222.228,266.333 223.667 C 263.904 225.107,259.997 227.421,257.651 228.811 C 254.634 230.598,253.328 231.462,253.192 231.760 C 252.587 233.089,253.376 234.503,254.721 234.497 C 255.523 234.493,255.281 234.622,262.000 230.638 C 264.704 229.035,269.804 226.011,273.333 223.919 C 276.862 221.826,280.162 219.873,280.667 219.579 C 281.847 218.891,290.114 213.996,296.000 210.499 C 299.787 208.250,312.781 200.559,314.583 199.500 C 314.858 199.339,317.333 197.872,320.083 196.241 C 326.690 192.323,333.410 188.345,340.750 184.009 C 344.050 182.060,346.825 180.408,346.917 180.338 C 347.008 180.268,347.421 180.025,347.833 179.796 C 348.246 179.568,349.971 178.556,351.667 177.547 C 353.363 176.539,356.775 174.514,359.250 173.048 C 373.523 164.594,372.667 165.168,372.667 164.053 C 372.667 163.019,372.155 162.393,371.060 162.088 C 370.823 162.022,370.275 162.215,369.426 162.661 M389.077 174.801 C 388.890 174.865,385.852 176.652,382.327 178.772 C 370.366 185.967,316.485 218.333,303.083 226.374 C 295.750 230.773,289.545 234.565,289.294 234.799 C 288.078 235.934,288.935 238.000,290.621 238.000 C 290.935 238.000,292.680 237.047,295.838 235.153 C 298.448 233.586,309.771 226.785,321.000 220.039 C 332.229 213.292,352.517 201.109,366.083 192.964 C 379.650 184.819,390.919 177.967,391.125 177.735 C 392.305 176.412,390.776 174.222,389.077 174.801 M105.586 216.536 C 104.771 216.838,104.333 217.458,104.333 218.312 C 104.333 218.944,104.229 218.790,114.740 233.624 C 119.274 240.021,118.725 239.682,122.184 238.230 C 126.432 236.447,133.462 234.043,137.750 232.906 C 146.532 230.578,151.150 229.612,158.341 228.597 C 163.125 227.922,169.776 227.344,172.854 227.337 C 174.710 227.332,175.236 227.218,175.744 226.711 C 176.618 225.837,176.401 224.302,175.324 223.745 C 174.597 223.369,167.047 223.706,161.833 224.347 C 147.498 226.111,135.412 229.052,123.190 233.751 C 121.598 234.363,120.237 234.800,120.164 234.723 C 120.091 234.646,118.315 232.146,116.217 229.167 C 106.896 215.930,107.428 216.627,106.500 216.438 C 106.271 216.391,105.860 216.435,105.586 216.536 M166.083 217.108 C 165.717 217.137,164.254 217.240,162.833 217.338 C 147.797 218.376,131.754 222.086,121.320 226.938 C 119.382 227.840,118.905 229.105,120.067 230.267 C 120.797 230.997,121.458 231.009,122.962 230.318 C 129.433 227.347,141.038 224.023,149.667 222.669 C 154.618 221.892,156.461 221.662,160.917 221.264 C 172.987 220.186,186.830 220.825,198.917 223.018 C 199.925 223.201,201.125 223.416,201.583 223.495 C 210.543 225.045,223.879 229.161,234.250 233.577 C 238.687 235.466,238.551 235.421,239.275 235.240 C 240.530 234.928,241.070 233.338,240.251 232.365 C 239.113 231.013,225.218 225.718,215.750 223.029 C 209.860 221.356,205.385 220.323,199.673 219.317 C 189.181 217.471,174.134 216.481,166.083 217.108 M184.083 230.997 C 172.586 231.452,162.257 232.512,151.417 234.352 C 141.430 236.046,131.018 238.629,123.058 241.385 C 120.279 242.347,119.633 243.152,120.419 244.672 C 121.043 245.879,121.579 245.889,124.908 244.757 C 132.194 242.279,141.424 239.957,150.125 238.411 C 153.808 237.757,154.402 237.655,155.453 237.500 C 164.238 236.199,170.834 235.508,179.500 234.978 C 184.549 234.669,199.668 234.614,204.639 234.887 C 209.449 235.151,209.545 235.145,210.206 234.532 C 211.112 233.692,210.922 232.146,209.845 231.589 C 208.849 231.074,191.957 230.686,184.083 230.997 M253.667 237.432 C 250.116 238.726,249.504 238.946,246.500 240.003 C 236.143 243.647,236.448 243.517,236.060 244.448 C 235.639 245.455,236.336 246.725,237.421 246.928 C 237.978 247.033,238.115 246.994,241.333 245.829 C 242.387 245.448,243.438 245.075,243.667 245.000 C 244.159 244.840,248.330 243.370,253.329 241.594 C 257.944 239.955,258.484 239.550,258.003 238.094 C 257.494 236.549,256.501 236.398,253.667 237.432 M226.583 245.107 C 226.308 245.147,224.846 245.361,223.333 245.582 C 220.717 245.964,215.635 246.682,198.500 249.089 C 194.329 249.675,190.429 250.230,189.833 250.322 C 189.237 250.414,187.925 250.605,186.917 250.748 C 183.038 251.296,164.993 253.840,163.250 254.084 C 162.242 254.226,160.967 254.413,160.417 254.500 C 159.867 254.588,156.679 255.042,153.333 255.509 C 142.548 257.015,129.780 258.818,128.667 258.992 C 128.071 259.085,124.585 259.582,120.919 260.097 C 113.557 261.131,113.485 261.152,113.166 262.336 C 113.032 262.835,113.044 263.116,113.219 263.536 C 113.741 264.783,114.277 264.844,118.929 264.184 C 120.939 263.899,126.558 263.105,131.417 262.420 C 136.275 261.735,141.037 261.060,142.000 260.919 C 145.218 260.449,146.041 260.332,154.833 259.091 C 159.646 258.412,167.633 257.283,172.583 256.582 C 177.533 255.881,185.521 254.753,190.333 254.076 C 195.146 253.398,199.608 252.764,200.250 252.666 C 201.260 252.513,222.539 249.504,226.250 248.990 C 228.746 248.643,229.333 248.245,229.333 246.897 C 229.333 245.540,228.288 244.859,226.583 245.107 " stroke="none" fill="#050505" fill-rule="evenodd"/></g></svg>